<?xml version="1.0" encoding="utf-8"?>
<!-- Generator: Adobe Illustrator 19.2.1, SVG Export Plug-In . SVG Version: 6.00 Build 0)  -->
<svg version="1.1" id="Layer_1" xmlns="http://www.w3.org/2000/svg" xmlns:xlink="http://www.w3.org/1999/xlink" x="0px" y="0px"
	 viewBox="0 0 265 528.6" style="enable-background:new 0 0 265 528.6;" xml:space="preserve">
<style type="text/css">
	.st0{fill:none;stroke:#231F20;stroke-miterlimit:10;}
</style>
<path class="st0" d="M232.5,168.1C225.3,217.9,161,271,129.9,298.6c-6,5.3-7.7,15.3-7.7,15.3l7.7-1l8.4-1.1l-8.5-13.3
	c0,0-96.6-57.6-102.6-130.5C21,93.2,73.1,35.6,129.8,35.6S243,95.6,232.5,168.1z"/>
<path class="st0" d="M139.6,497.6c-0.3-18,21.7-37.4,0.5-53.4c-17.2-12.9,2.5-24-0.7-46.2c-2.1-14.4-22-29.9-9.2-53
	s0.2-32.1,0.2-32.1"/>
</svg>
